<svg xmlns="http://www.w3.org/2000/svg" xmlns:xlink="http://www.w3.org/1999/xlink" viewBox="0 0 169.25 92"><defs><style>.cls-1{fill:url(#New_Gradient_Swatch_copy);}</style><linearGradient id="New_Gradient_Swatch_copy" y1="46" x2="169.25" y2="46" gradientUnits="userSpaceOnUse"><stop offset="0" stop-color="#9087ff"/><stop offset="0.34" stop-color="#609fff"/><stop offset="0.69" stop-color="#4de6a9"/><stop offset="0.74" stop-color="#56e8a5"/><stop offset="0.82" stop-color="#70ec98"/><stop offset="0.93" stop-color="#99f385"/><stop offset="0.99" stop-color="#b6f877"/></linearGradient></defs><title>cssgrid</title><g id="Layer_2" data-name="Layer 2"><g id="Layer_1-2" data-name="Layer 1"><path class="cls-1" d="M19.67,39.83a4.82,4.82,0,0,0-1.77-1.52,5.21,5.21,0,0,0-2.46-.6,6.56,6.56,0,0,0-5.06,1.94,7.19,7.19,0,0,0-1.8,5.09,7.19,7.19,0,0,0,1.8,5.09,6.56,6.56,0,0,0,5.06,1.94,4.62,4.62,0,0,0,2.46-.63,7.5,7.5,0,0,0,1.77-1.49l5.66,5.95a10.93,10.93,0,0,1-4.72,2.89,17.75,17.75,0,0,1-5.17.83,17.5,17.5,0,0,1-6-1,14.5,14.5,0,0,1-4.92-2.94,13.8,13.8,0,0,1-3.29-4.6,15.61,15.61,0,0,1,0-12,13.82,13.82,0,0,1,3.29-4.6A14.52,14.52,0,0,1,9.41,31.2a17.5,17.5,0,0,1,6-1,17.75,17.75,0,0,1,5.17.83,10.94,10.94,0,0,1,4.72,2.89ZM44.14,39a6.07,6.07,0,0,0-5-2.34,4.68,4.68,0,0,0-2.12.51A1.82,1.82,0,0,0,36,39a1.59,1.59,0,0,0,1.06,1.52,14,14,0,0,0,2.69.86l3.49.8a13.14,13.14,0,0,1,3.49,1.34A7.82,7.82,0,0,1,49.43,46a7.43,7.43,0,0,1,1.06,4.2,7.79,7.79,0,0,1-1.17,4.43,9,9,0,0,1-3,2.8A12.91,12.91,0,0,1,42.2,58.9a24.46,24.46,0,0,1-4.52.43,21.87,21.87,0,0,1-5.89-.83,11,11,0,0,1-5-2.94L32,49.78A8.62,8.62,0,0,0,34.62,52a7.17,7.17,0,0,0,3.4.77,8,8,0,0,0,2.69-.43,1.58,1.58,0,0,0,1.2-1.57,1.74,1.74,0,0,0-1.06-1.63,11.63,11.63,0,0,0-2.69-.91l-3.49-.8a14.39,14.39,0,0,1-3.49-1.29,7.29,7.29,0,0,1-2.69-2.43,7.41,7.41,0,0,1-1.06-4.2,8.47,8.47,0,0,1,1-4.23,8.8,8.8,0,0,1,2.63-2.92,11.4,11.4,0,0,1,3.75-1.69,17.18,17.18,0,0,1,4.29-.54,20.14,20.14,0,0,1,5.55.8,10.29,10.29,0,0,1,4.75,2.86Zm26.48,0a6.07,6.07,0,0,0-5-2.34,4.68,4.68,0,0,0-2.12.51,1.82,1.82,0,0,0-1,1.77,1.59,1.59,0,0,0,1.06,1.52,14,14,0,0,0,2.69.86l3.49.8a13.14,13.14,0,0,1,3.49,1.34A7.82,7.82,0,0,1,75.91,46,7.43,7.43,0,0,1,77,50.18a7.79,7.79,0,0,1-1.17,4.43,9,9,0,0,1-3,2.8,12.91,12.91,0,0,1-4.12,1.49,24.46,24.46,0,0,1-4.52.43,21.87,21.87,0,0,1-5.89-.83,11,11,0,0,1-5-2.94l5.2-5.78A8.62,8.62,0,0,0,61.1,52a7.17,7.17,0,0,0,3.4.77,8,8,0,0,0,2.69-.43,1.58,1.58,0,0,0,1.2-1.57,1.74,1.74,0,0,0-1.06-1.63,11.63,11.63,0,0,0-2.69-.91l-3.49-.8a14.39,14.39,0,0,1-3.49-1.29A7.29,7.29,0,0,1,55,43.75a7.41,7.41,0,0,1-1.06-4.2,8.47,8.47,0,0,1,1-4.23,8.8,8.8,0,0,1,2.63-2.92,11.4,11.4,0,0,1,3.75-1.69,17.18,17.18,0,0,1,4.29-.54,20.14,20.14,0,0,1,5.55.8,10.29,10.29,0,0,1,4.75,2.86Zm48.85-23.17q0,.49,0,1a16,16,0,0,1-.28,2.92,32.64,32.64,0,0,1-.95,3.66q-.6,1.79-1.37,3.8a3.08,3.08,0,0,1-.39.63l-.46.53a6.11,6.11,0,0,0-.81,1.34,2.38,2.38,0,0,1-1.34.53.78.78,0,0,1-.25,0l-.28-.07-.32-.11a4.65,4.65,0,0,0-.7-.14,2.82,2.82,0,0,1-.11-.81A4.75,4.75,0,0,1,112.4,28a5.85,5.85,0,0,1,1.37-2.5q.81-2.22,1.34-4,.28-1,.49-2a15.55,15.55,0,0,0,.28-1.9q0-.49,0-1a8,8,0,0,0-.42-2.67,4,4,0,0,0-.77-1.44,2.87,2.87,0,0,0-1.13-.84,1.32,1.32,0,0,0-1-.49l-.28,0L112,11a5.15,5.15,0,0,1-.7-.18,1.58,1.58,0,0,0-.6.28l-.14.18-.14.14,0,0,0-.07a.15.15,0,0,0,0-.11,10.54,10.54,0,0,0-2.85,1.44l-.7.49-.74.56-.74.56-.7.6a41.09,41.09,0,0,0-5.21,5.52,42.83,42.83,0,0,0-4.26,6.51q-.39.7-.92,1.72l-.81,1.72-.77,1.76q-.42,1-.7,1.79l-.14.28,0,0a.27.27,0,0,0,0,.11,9,9,0,0,0-.42,1l-.42,1q-.28.77-.7,2.15l-.18.53v.07l-.25.77-.21.81-.21.77-.18.77a14.11,14.11,0,0,0-.35,1.48Q88.54,45,88.37,46T88,48.44a18.69,18.69,0,0,0-.14,1.86,28.72,28.72,0,0,0-.56,5.84v1q.11,2.64.63,6.65a9.09,9.09,0,0,1,.39,1.09l.14.56.21.56.25,1.13.35,1.09a10.09,10.09,0,0,0,.92,1.9,9.36,9.36,0,0,0,2.15,2.6c.37.09.7.16,1,.21A2.78,2.78,0,0,0,94,73a5.3,5.3,0,0,0,.56,0A6.35,6.35,0,0,0,96,72.75a8.14,8.14,0,0,0,1.37-.6A13.43,13.43,0,0,0,99,70.89l.39-.35.35-.39.18-.21.18-.21.39-.46a30.59,30.59,0,0,0,2.78-4,1.77,1.77,0,0,0,.42-.42l.21-.25.21-.21v-.11a3.48,3.48,0,0,1,.14-.7A9.83,9.83,0,0,0,105.85,61l.42-.81.42-.81q.49-.88.88-1.44a1.9,1.9,0,0,1,.11-.6l.07-.25,0-.21q1.34-2.64,2.36-5.07l.28-.74-1.34.49-1.34.49h0l0,0v0h-.18a2.31,2.31,0,0,0-.56.07l-.11,0-.28,0-.25.14h-.07l-.18,0-.39.11-.39.18a.72.72,0,0,0-.28.21,1.33,1.33,0,0,0-.32,0,2.89,2.89,0,0,0-.88.18l-.6.18a1.29,1.29,0,0,1-.32,0,1.13,1.13,0,0,1-.28,0,.23.23,0,0,1-.18.18l-.11,0-.07.07a1.44,1.44,0,0,0-.46-.07l-.42.07a3.25,3.25,0,0,1-.46,0,2,2,0,0,1-.39,0,.6.6,0,0,1-.49.18h-.46l-.35,0a3.94,3.94,0,0,1-.88.07h-.42a1.14,1.14,0,0,0-.42.07l-.07-.11-.07,0a.22.22,0,0,1-.14-.11.81.81,0,0,1-.07.28.84.84,0,0,0-.6-.25l-.35,0a.54.54,0,0,1-.32-.21.45.45,0,0,1-.07.18h0l0,0a8.14,8.14,0,0,1-1.06-.42l-.53-.21-.49-.25a2.55,2.55,0,0,1-.14-.67l0-.35-.07-.35,0-.18,0-.18,0-.07a.1.1,0,0,0-.07,0l-.07-.7L93.4,50l0-.18c0-.09.09-.14.14-.14h0a.93.93,0,0,1,.25.14l.28.21a1.19,1.19,0,0,0,.49.35h0l.21,0v0a.14.14,0,0,0,.11,0h0l.28,0,.32,0a1.18,1.18,0,0,1,.6.42c0-.14.09-.21.21-.21l.11,0,.21.11.18.11h.14l.11-.07h0s.11.07.18.21l.11-.21a.47.47,0,0,1,.21.21,5.24,5.24,0,0,1,.63,0l.67,0h.14a1.48,1.48,0,0,0,1-.32.39.39,0,0,0,.14.14l.11,0a.32.32,0,0,1,.21.18.14.14,0,0,1,0-.11v0l.07-.11a.93.93,0,0,0,.35.07,1,1,0,0,0,.25,0l.28-.07.28-.07a2.23,2.23,0,0,1,.77-.18.79.79,0,0,1,.35.07c0,.07,0,.11-.07.11h-.11a.1.1,0,0,0-.07,0s-.08,0-.11.14l0,0v0l0,0v0a.21.21,0,0,0,.18.11l.14,0a.1.1,0,0,1,.07,0c.09,0,.16.06.21.18s-.12.11-.14.25v.18a.11.11,0,0,1-.07.11v-.11l0-.07a.11.11,0,0,0-.07-.11q-.07-.11-.11-.11s0,0-.07.07v.14l0,0a1.15,1.15,0,0,0-.39-.56.32.32,0,0,0-.14,0c-.09,0-.15.08-.18.25h0l.11,0,.07,0,0-.07a1.37,1.37,0,0,0,.07.18l.07,0a.11.11,0,0,1,.07.11.43.43,0,0,1-.25.07l-.21,0q-.21,0-.28.42l-.25-.46v.21l0,.11v.11a.11.11,0,0,0-.07,0s-.07.06-.07.18a.63.63,0,0,1-.21-.32.28.28,0,0,0,0,.18v.07l0,.07-.07-.11-.07-.14c0-.09-.09-.14-.14-.14h0a.88.88,0,0,1,.14.35,0,0,0,0,1,0,0,1.63,1.63,0,0,0-.14-.28l-.07-.07-.07-.11a.61.61,0,0,0-.25.21l-.11.14-.11.11a.3.3,0,0,1-.21.11q-.14,0-.32-.21c0,.14-.11.21-.18.21s-.09,0-.14-.14-.07-.21-.14-.21H99.1l.07.18a.14.14,0,0,1,0,.11.1.1,0,0,1,0,.07L99.1,52l0-.07a.51.51,0,0,1-.18-.25.39.39,0,0,1-.18.32l-.14,0-.18.07a1,1,0,0,0-.14-.49.14.14,0,0,0,0,.11l0,.18a1,1,0,0,1,0,.21v0a.11.11,0,0,1-.11.07.34.34,0,0,1-.18-.07L97.87,52l-.14-.18a.38.38,0,0,1,.07.21.2.2,0,0,1,0,.14.14.14,0,0,0-.14-.07h0l-.14,0h-.07a.32.32,0,0,1-.28-.18h0l0-.07q0-.11-.11-.11l0,0-.07.07-.07.11a.21.21,0,0,1-.18.11q-.11,0-.21-.25a.33.33,0,0,1-.28.14h-.07q-.25,0-.42-.42c0,.19-.12.28-.21.28s-.19-.11-.28-.32c0,.14,0,.21-.07.21H95a.1.1,0,0,0-.07,0v-.07h0l0,0-.07-.18a.11.11,0,0,1-.11.07.34.34,0,0,1-.18-.07l-.14-.11a.32.32,0,0,0-.14,0l.21.21.18.18a.42.42,0,0,0,.21.11.11.11,0,0,0,.11-.07l0,.07a7,7,0,0,0,2.39.49,4.55,4.55,0,0,0,.56,0,.26.26,0,0,1,0-.11.14.14,0,0,1,0-.11.53.53,0,0,0,.07.21l.28.07.28.11h.14a.47.47,0,0,0,.39-.18l.11.18a13.06,13.06,0,0,1,1.51-.18l.74,0,.74-.11q0-.18.18-.18a.55.55,0,0,1,.21.14,1.54,1.54,0,0,1,.56-.25l.28-.07.32,0a2.08,2.08,0,0,0,1.16-.42l.07.07H105c.07,0,.13,0,.18.14v-.35c0-.09,0-.14.07-.14a.1.1,0,0,1,.07,0l-.07.18a.39.39,0,0,0,.25.14.14.14,0,0,0,.11,0l.14-.11.11-.07c0-.12,0-.18-.07-.18a0,0,0,0,0,0,0l-.07,0a.1.1,0,0,1-.07,0l0,0s0,0-.07-.07h0l0,0a.5.5,0,0,0-.42-.32.32.32,0,0,0-.14,0l-.14.07-.11,0h-.07a.28.28,0,0,1-.21-.07l0-.14,0-.11,0-.11a.58.58,0,0,0,0,.18.24.24,0,0,0,.07.18V51l0,.07-.14-.28a.88.88,0,0,1-.7.28l-.35,0a.39.39,0,0,1,.14-.14l.21,0a.22.22,0,0,0,.25-.18,0,0,0,0,0,0,0l-.11,0-.21,0h-.07a.25.25,0,0,1-.25-.14l.53-.14.49-.14a3.35,3.35,0,0,1,.95-.21l0,0,.07,0h.07a.14.14,0,0,0,.11,0l.18-.14h0l0,0,.42-.18.14.21a.1.1,0,0,0,0-.07.1.1,0,0,0,0-.07l0-.07v-.07h.14l.07,0a.1.1,0,0,1,.07,0s.08,0,.11.11a23.92,23.92,0,0,1,4.57-1.79,4.8,4.8,0,0,1,.81-.6l.11-.35a.67.67,0,0,1,.42-.18.51.51,0,0,1,.32.11,4.63,4.63,0,0,1,.81-.21,2.4,2.4,0,0,1,.6-.39l.32-.11.28-.11.32-.11.32-.14a3.06,3.06,0,0,0,.67-.46.1.1,0,0,1,.07,0,0,0,0,0,1,0,0l.14.07.11,0s.09,0,.14-.11a2.19,2.19,0,0,1,.21.91v.56q0,.39,0,.63a7.1,7.1,0,0,1-.25,1.06c-.12.33-.23.49-.35.49h0a8.46,8.46,0,0,0-.81,2.11l-.14.53-.14.53a5.36,5.36,0,0,1-.46,1.06,18.6,18.6,0,0,1-.56,2.32,22.76,22.76,0,0,1-1,2.32L112.61,60,112,62.27a42.65,42.65,0,0,1-1.37,4.47.24.24,0,0,1,.07.18.32.32,0,0,1,0,.14l-.07.18a.31.31,0,0,0,0,.14l0,0v.07h-.07l-.07,0a.14.14,0,0,0-.14.07l.21.18-.25.81-.07.14-.18.39a.66.66,0,0,0,0,.21v.14l-.07.14,0,.07v0a14.77,14.77,0,0,1-.39,1.86l-.25,1-.25,1a.38.38,0,0,1-.11-.28,1.15,1.15,0,0,1,0-.28l.07-.35a.61.61,0,0,0,0-.18.21.21,0,0,0,0-.14.73.73,0,0,0-.25.53l-.07.35a1.24,1.24,0,0,1-.18.35,3.54,3.54,0,0,1,.49-2l-.32-.18a.22.22,0,0,1,.11-.11h.11c.09,0,.15,0,.18-.07s.06.11.11.11a.39.39,0,0,0,.25-.14l-.11,0-.14,0-.11.11a.43.43,0,0,1-.07-.25.66.66,0,0,1,0-.21l.07-.28.07-.25a1.17,1.17,0,0,0,.07-.35A.8.8,0,0,0,109,69l.07.07a.11.11,0,0,1,0,.07A.43.43,0,0,1,109,69a.27.27,0,0,1,0-.11l0-.14a.11.11,0,0,0,0-.07c0-.07,0-.12-.14-.14l-.14.25-.11.28a1.55,1.55,0,0,0,0,.32.69.69,0,0,0,.07.32l.21-.18a.15.15,0,0,1,0,.11c0,.07,0,.12-.14.14l-.18.07-.21.07a.24.24,0,0,1,.11.21v.21a.11.11,0,0,0,.07.11,8,8,0,0,0-.7,2.32l-.07.53-.14.53a4.88,4.88,0,0,1-.39,1.13.74.74,0,0,1,.11.39.42.42,0,0,1-.25.32L106.87,77l-.25,1.37q-.32,1.65-.63,2.78l.18.14a1.66,1.66,0,0,0-.35,1v1.06a.91.91,0,0,0,.21.11.33.33,0,0,1-.14,0l-.11,0a21.39,21.39,0,0,0-.53,2.67q-.14,1.16-.18,2.74l0,0a.46.46,0,0,0-.14.39v.21l.11.39.11.35a.91.91,0,0,0,0-.28v-.28a.58.58,0,0,1,0-.18.48.48,0,0,1,.14-.35l-.14-.11V89l-.07,0a.45.45,0,0,0,.11-.18v-.18a.29.29,0,0,1,.28-.25.58.58,0,0,1-.18-.42v-.11a.45.45,0,0,1,.35-.35.94.94,0,0,1-.25-.63v-.18a1,1,0,0,1,.28-.63l.11,0h0s0,0,0-.07,0,0-.07,0-.06,0-.11.07a.44.44,0,0,1-.14-.32.5.5,0,0,1,.18-.35l.14-.14.11-.14a.33.33,0,0,0,0-.14.24.24,0,0,0-.07-.18q-.11.07-.11.14v0a.52.52,0,0,1-.11-.32.84.84,0,0,1,.07-.32l.11-.28v-.11a.41.41,0,0,0,0-.18.21.21,0,0,1,.18-.11.34.34,0,0,1,.18.07l-.14-.21-.11-.25a.64.64,0,0,1,0-.21.47.47,0,0,1,.11-.28.1.1,0,0,1,.07,0,.34.34,0,0,1,.18.07l.18,0a.21.21,0,0,0,.14-.07.54.54,0,0,0-.42-.21h-.07c0-.09.09-.2.14-.32l.07-.28a.63.63,0,0,1,.39-.39.46.46,0,0,1-.21-.21l0-.14,0-.07a.24.24,0,0,1,.18-.07l.18.11v-.11l0-.14q0-.18-.21-.21a.24.24,0,0,1-.07-.18.56.56,0,0,1,.25-.39.93.93,0,0,1-.14-.46.88.88,0,0,1,.18-.53l.14-.21.18-.21a1.33,1.33,0,0,0,.28-.49l-.07-.11-.07-.11a1.22,1.22,0,0,0-.25-.25.1.1,0,0,1,.07,0,.61.61,0,0,1,.32.18.1.1,0,0,0,0-.07.38.38,0,0,0-.14-.25l-.14-.11a.23.23,0,0,1-.11-.11l.11,0h.07a.32.32,0,0,0,.21-.18.56.56,0,0,1-.32-.25.28.28,0,0,0,.21-.28v-.07a.14.14,0,0,1,.11,0l.11.07h.11a.14.14,0,0,0,.11,0l-.46-.32a.93.93,0,0,0,.56-.67l0-.21,0-.21a1.84,1.84,0,0,1,.11-.42h0s0,0,.07.11l0,.11.18.07-.07.14-.07.11a.54.54,0,0,0-.07.21v.07a.41.41,0,0,0,.32-.42.58.58,0,0,0,0-.18.85.85,0,0,0-.53-.63l.07,0,.18-.11a.2.2,0,0,0,.07-.14s0-.09-.11-.14a.41.41,0,0,0-.07-.11l-.11,0s0,.07-.07.07h0a.23.23,0,0,1,.11-.14l.21-.07a.42.42,0,0,0,.28-.32.37.37,0,0,1,.14.32.67.67,0,0,1,0,.21l-.11.25a.38.38,0,0,0,.11.28l0,0,0,0h0a.1.1,0,0,0,0-.07.28.28,0,0,0,.14-.28v-.07l0-.18c0-.07,0-.13.14-.18v.21a7.53,7.53,0,0,1-.35,1.9l-.18.56-.14.53a4.38,4.38,0,0,0-.11.91v.21l-.32.25q.14.07.14.32l0,.21a.45.45,0,0,0,.11.21,5.78,5.78,0,0,0-.7,2.25l-.18,1.2a9.65,9.65,0,0,1-.25,1.2.84.84,0,0,1,.14.39l-.28.21a.3.3,0,0,1,.18.25v.11l-.07.11,0,.11a.61.61,0,0,0-.07.28,2.22,2.22,0,0,0,0,.35l0,.35v.07a.6.6,0,0,1-.32.56,1.31,1.31,0,0,1,.18.7,2.49,2.49,0,0,1,0,.39l-.11.6-.11.56a.2.2,0,0,0-.07.14.3.3,0,0,0,0,.14l0,.35,0,.11a.67.67,0,0,0,0,.21,3,3,0,0,0,.14.77l.07.49a1.09,1.09,0,0,1,0,.25.81.81,0,0,1,0,.25.52.52,0,0,1-.25.35l-.21.11-.21.11-.67-.18a.42.42,0,0,0,.07-.11.1.1,0,0,0,0-.07,1.09,1.09,0,0,1-.25.07h-.11l-.11.07a.61.61,0,0,0-.32-.18l-.32-.11a1,1,0,0,1-.63-.32v-.92l0-.91q0-1.16,0-1.9l0,0,0-.07a.33.33,0,0,1,.18-.14,2.41,2.41,0,0,1-.07-.6l0-.32.07-.28a3.7,3.7,0,0,0,.07-.63,1,1,0,0,0-.07-.42.67.67,0,0,1,.32-.14l-.07-.11v-.14a.45.45,0,0,0-.11-.21,8.15,8.15,0,0,0,.39-1.58l.14-.77q.11-.46.21-.77l.07-.63.07-.63a2.27,2.27,0,0,1,.39-1.09v-.14a6.31,6.31,0,0,1,.21-1.37l.18-.77a4.28,4.28,0,0,0,0-.53v-.28l.11-.18.07-.21a.62.62,0,0,1,.18-.35,10.71,10.71,0,0,1,.46-2.22,7.39,7.39,0,0,0,.39-2v-.21a3.33,3.33,0,0,0,.25-.6q.14-.32.28-.74t.18-.74a1.93,1.93,0,0,0,.07-.42V68a2.41,2.41,0,0,0,.18-.49L108,67v0l0-.18a7.93,7.93,0,0,0,.21-1.44l0,0,0,0v-.11l.49-1.9.49-2a9.35,9.35,0,0,1-1.48,2.15,4.78,4.78,0,0,1-.95,2l-.63.84a6.51,6.51,0,0,0-.63.84,6.73,6.73,0,0,0-.49.74l-.18.32-.18.32q-.39.6-.74.63l-.35.84a2.49,2.49,0,0,1-.81.67l-.56.77a8,8,0,0,1-.67.77A10.6,10.6,0,0,1,100,73.53a11.93,11.93,0,0,1-1.65,1,10.78,10.78,0,0,1-1.79.74,8.29,8.29,0,0,1-1.86.39c-.23,0-.46,0-.67,0a7.08,7.08,0,0,1-1.23-.11,7.34,7.34,0,0,1-3.38-1.65,4.77,4.77,0,0,0-.25-.49L89,73.21l-.18-.28a1.55,1.55,0,0,1-.35-.7.14.14,0,0,1,0-.11,4.63,4.63,0,0,1-.74-.74q-.28-.56-.67-1.55L86.85,69l-.28-.84L86,66.49l-.25-.84-.21-.88a22.79,22.79,0,0,1-.74-5.42c0-.4,0-.8,0-1.2a2.52,2.52,0,0,1,.14.63v.74a2.39,2.39,0,0,0,.18,1,.56.56,0,0,0,0,.18,0,0,0,0,0,0,0,0,0,0,0,0,0,0,.59.59,0,0,0,0-.18,1.71,1.71,0,0,0,.07-.53v-.21l0-.42,0-.42a5,5,0,0,1,0-.56,1.63,1.63,0,0,1,.21-1v.14a2,2,0,0,0,.25,1l.07.14.11.18a2.62,2.62,0,0,1,.11.49,0,0,0,0,1,0,0l-.07-.25a.81.81,0,0,0-.11-.18s-.06.06-.11.18a1.13,1.13,0,0,0-.07.42,1.66,1.66,0,0,0,.07.46l.11.21.07.18a1,1,0,0,1,.07.21q-.42.21-.46,1.48v.18a4.38,4.38,0,0,0,.11.91,2.08,2.08,0,0,0,.35.92,3.84,3.84,0,0,0-.14-.84l-.11-.46-.11-.39a.22.22,0,0,0,.14-.18.93.93,0,0,0,0-.28c0-.14,0-.21,0-.21l0,0q.18.91.25,1.37l.07.6.11.56a5.42,5.42,0,0,0,1,2.25l-.32.67q.11.25.21.25a.1.1,0,0,0,.07,0l0,0h.07s.09,0,.14.11a1.45,1.45,0,0,0,.49,1v.14a.75.75,0,0,1-.14.53,1.54,1.54,0,0,0,.35.46l.14.11.14.14a.79.79,0,0,1,0,.25l-.07.25v.14a1.23,1.23,0,0,0,.18.6l.07-.21a.28.28,0,0,1,0-.18,0,0,0,0,1,0,0s.11.06.18.18v.14a3,3,0,0,0,0,.42l0,.28.07.28a6.12,6.12,0,0,0,2.32,1.83l.6.28.6.21q.56.25,1.3.53a7.23,7.23,0,0,1,1.41-.21.77.77,0,0,1,.25,0v0c0,.09.08.14.25.14h.18l.42-.11.21-.07.14-.07q-.18,0-.18-.14s.07-.12.21-.21l.25,0,.28-.07h.18a.78.78,0,0,1,.35.07,10.28,10.28,0,0,1,1.16-1l.32-.25.35-.28a4.26,4.26,0,0,0,.74-.7v.07q0,.21.25.21l.28,0a.81.81,0,0,0,.11-.32v0s0,0-.11-.07-.14-.07-.14-.14a.34.34,0,0,1,.07-.18,4.69,4.69,0,0,1,1-1.13l.49-.35.53-.35h-.07a.14.14,0,0,1-.14-.07v0a.86.86,0,0,1,.14-.39,7.43,7.43,0,0,0,1.09-1.48l.25-.39.28-.39a3.15,3.15,0,0,1,.6-.63,2,2,0,0,0-.28.6,2.12,2.12,0,0,0,.56-.74l.21-.46.18-.53a3.61,3.61,0,0,1,1.13-1.72,1.5,1.5,0,0,0-.07.32h0a.11.11,0,0,0,.07,0,.34.34,0,0,0,.07-.18.09.09,0,0,0-.11-.11,17.27,17.27,0,0,1,.88-2,6.26,6.26,0,0,1,1.3-1.76,3.5,3.5,0,0,1,.32-1.37,2.59,2.59,0,0,1,.81-1.13V57a1.88,1.88,0,0,1,.14-.7l.18-.46a3.07,3.07,0,0,0,.21-.53l0,0h0l0-.21.11,0c0-.09.07-.19.21-.28a.39.39,0,0,1,0-.18.81.81,0,0,1,.07-.28l0-.21a.31.31,0,0,0,0-.14.14.14,0,0,0,0-.11,5.13,5.13,0,0,0-.39,1.23l-.07,0a79.27,79.27,0,0,1-8.3,14.46h0a.06.06,0,0,1,.07.07.85.85,0,0,1-.11.28.06.06,0,0,0-.07-.07h-.14l-.53.6-.53.56-.56.49-.56.49q-.67.53-2.5,1.79L97,73.67a6.58,6.58,0,0,1-2.88.74,4.21,4.21,0,0,1-.95-.11,4.81,4.81,0,0,1-3-1.86A12.61,12.61,0,0,1,88.26,69,31.52,31.52,0,0,1,87,64.94a2.79,2.79,0,0,1-.35-1.06,5,5,0,0,1,0-.56,3,3,0,0,1,0-.49A22.15,22.15,0,0,1,86,57.2q0-.63,0-1.27,0-1.34.21-3.45l.07-.91.07-.95q.07-1.16.14-2a.84.84,0,0,0,.11-.32l.11-.39a1.76,1.76,0,0,1,.32-.81,2.94,2.94,0,0,1-.21-1,1.89,1.89,0,0,1,.07-.53l0,.74a5.42,5.42,0,0,0,.53-1.76l.18-.95.07-.46,0-.39c-.14,0-.23.22-.28.53l-.07.39a.54.54,0,0,1-.11.28l-.07.14,0,.14a.34.34,0,0,1-.14.21.66.66,0,0,1,0-.21l.11-.18a5.9,5.9,0,0,0-.95,2.74l-.11.81-.14.81a9.28,9.28,0,0,1-.32,1.41l-.07-.46,0,0h-.07a.1.1,0,0,0-.07,0l0,0a4.25,4.25,0,0,0,.07.56s0,.07.07.07.07-.07.14-.21v.07a.27.27,0,0,0,.11.25.11.11,0,0,1,.07.11,1.08,1.08,0,0,1,0,.32l-.35.32q0,1.48-.11,3.31l-.11,1.58-.11,1.58a5.93,5.93,0,0,1-.11-1.16q0-.42,0-1.13t0-.95a3.72,3.72,0,0,0-.07-.88,7.16,7.16,0,0,0-.11,1l0,.56,0,.56A4.23,4.23,0,0,1,84.74,57v-.35A48.7,48.7,0,0,1,86,44.85l0,0,0-.21.07-.46.14-.53.11-.6.21-1.23,0-.07h0l.07-.42.63-2.53a4.26,4.26,0,0,0,.35-.32.59.59,0,0,0,0-.18.14.14,0,0,0-.07-.14h-.07s-.07,0-.07,0l.07-.21,0-.14a1.21,1.21,0,0,0,.18-.42l.14-.49a1.41,1.41,0,0,1,.39-.84,63.83,63.83,0,0,1,2.46-6.93l.39-.81.39-.84.39-.81.46-.81.42-.81.42-.77.95-1.55.49-.77.49-.74.53-.77.53-.74,1.09-1.41a5.33,5.33,0,0,1,.6-.7l.6-.7q.46-.56,1.2-1.34l1.27-1.3.67-.6.7-.63.67-.6.7-.56.74-.67.74-.67a15.4,15.4,0,0,1,1.65-1.2,14.1,14.1,0,0,1,1.83-1,10.87,10.87,0,0,1,2.08-.63,7.19,7.19,0,0,1,1.41-.14,5.41,5.41,0,0,1,.88.07,6,6,0,0,1,2.25.74,6.87,6.87,0,0,1,1.86,1.48,7.23,7.23,0,0,1,1.23,1.94l.25.53.25.49.18.53.14.53.14.49.07.53.07.49ZM85.66,48.41l.14-.14a1.16,1.16,0,0,0,0-.28.53.53,0,0,1-.14.11A1.31,1.31,0,0,0,85.66,48.41ZM86,46.12v.11l0,.14a0,0,0,0,0,0,0s0,0,.07-.11V46c0-.07,0-.11-.07-.11A.29.29,0,0,1,86,46.12Zm.56,21.28s.07-.08.07-.18a1.06,1.06,0,0,0-.11-.39c-.12-.26-.22-.39-.32-.39h0a1,1,0,0,1,.25.49l0,.21A.78.78,0,0,0,86.57,67.41Zm1.34-22.69.18-.74a3.36,3.36,0,0,0,.18-.63,3.45,3.45,0,0,0,.11-.74.8.8,0,0,0,0-.25q-.35,1-.63,2t-.39,2.08a42.06,42.06,0,0,0-.49,4.26c0,.16-.06.35-.11.56l-.14.63a10.62,10.62,0,0,0-.21,1.34q-.07,1-.07,2.15,0,2.18.28,5,.21,2.25.49,3.73a22.55,22.55,0,0,0,1.13,3.73A27.61,27.61,0,0,0,89.56,71a6.82,6.82,0,0,0,2.08,2.43,2.93,2.93,0,0,0,1.51.53,2.84,2.84,0,0,0,.46,0,7.21,7.21,0,0,0,1.34-.14,9.11,9.11,0,0,0,3.83-1.44,11.9,11.9,0,0,0,1.34-1.16l.28-.28.28-.32.6-.74a20.54,20.54,0,0,0,2-3.06,1.63,1.63,0,0,0,.42-.46l.18-.32.18-.32q-.21,0-.42.42l-.14.32-.21.35-.11,0a5,5,0,0,1-.63.84l-.32.32-.32.39a.58.58,0,0,0,0-.18h0s-.06,0-.11.07a.35.35,0,0,0-.07.14,0,0,0,0,0,0,0,.37.37,0,0,0,.14-.07l-.77,1-.77,1A9.9,9.9,0,0,1,98.71,72a8.11,8.11,0,0,1-4,1.72,4.54,4.54,0,0,1-.56,0,4.11,4.11,0,0,1-1.37-.21,3.91,3.91,0,0,1-1.58-1,10.18,10.18,0,0,1-2.39-3.8,30.64,30.64,0,0,1-2.08-9.71q-.07-1.23-.07-2.57a60.11,60.11,0,0,1,.53-7.6,1.26,1.26,0,0,0,.11-.35l.07-.39a1.26,1.26,0,0,1,.25-.7,2.78,2.78,0,0,1,0-.46,5.33,5.33,0,0,1,.07-.81l.14-.77Zm-1.55-.07.07-.14.11-.11a.29.29,0,0,0,.07-.21.6.6,0,0,0,0-.18A.79.79,0,0,0,86.36,44.64Zm.14,21.21v.21a.94.94,0,0,0,.11.42.8.8,0,0,0,.18.32l0,0s0,0,.07-.14l-.18-.25a.65.65,0,0,1,0-.21A.66.66,0,0,0,86.5,65.86Zm.92-3.1-.07-.35q-.07-.35-.14-.35h0v.25a1.31,1.31,0,0,0,0,.32q.07.39.25.39h0A1,1,0,0,1,87.42,62.76Zm-.18,5.88a0,0,0,0,1,0,0s.06,0,.11.07l.11.07.07.07a.83.83,0,0,0-.18-.28.4.4,0,0,0-.14-.14s-.07,0-.07,0A.54.54,0,0,0,87.24,68.64Zm1.44-29.27q.25-1,.67-2.29a15.86,15.86,0,0,1,1.37-3.41,9.43,9.43,0,0,1,.46-1.55l.35-.81.39-.88.42-.84.42-.81a10.88,10.88,0,0,0,.56-1.51,1.53,1.53,0,0,0,.56-.63l.21-.46.21-.46h0a.32.32,0,0,0-.28.18l-.14.21-.14.18a2.64,2.64,0,0,1,.28-.74l.14-.28.14-.42A13.52,13.52,0,0,0,93.43,26l-.42.7-.42.74a7.44,7.44,0,0,0-.84,2.78v.14a10.88,10.88,0,0,0-1.09,1.86l-.32.67L90,33.6q-.39.88-.63,1.62-.53,1.41-1.09,3.34-.21.7-.46,1.62l-.21.74-.18.7s0-.07.07-.07l.11,0h0s.11-.08.18-.25a.36.36,0,0,0,.07-.14l-.11,0-.07,0-.07,0h0a0,0,0,0,1,0,0V41.2q.32-.6.53-.6t.21.28Q88.4,40.46,88.68,39.37Zm-.84,31.24-.07-.11-.11-.18c-.07-.12-.12-.18-.14-.18h0Zm3-35.74.6-1.72.63-1.69q.74-1.9,1.41-3.34a31.78,31.78,0,0,0-3.87,9.57q-.07.25-.35,1l-.25.63-.18.63a5.29,5.29,0,0,0-.28,1.23c0,.12,0,.18.07.18h0q.28-.74.56-1.55l.25-.81.28-.81.53-1.69Zm-1.9.25q0,.18.11.21l0-.25,0-.25v-.11s0-.07,0-.07h0A1.38,1.38,0,0,0,89,35.11Zm2,38.94a1.42,1.42,0,0,0,.28.11.32.32,0,0,1,0-.14l0-.07v-.07l-.25-.07Zm.81.88.11.11h.07a0,0,0,0,0,0,0l-.14-.07a.86.86,0,0,0-.35-.14.34.34,0,0,0-.14-.18.1.1,0,0,0-.07,0,.1.1,0,0,0-.07,0,0,0,0,0,0,0,0l0,0a.55.55,0,0,0,.28.11.23.23,0,0,0,.14.11Zm-.07-.39a1.16,1.16,0,0,1,.28,0l-.11-.25-.25-.07-.28-.07.11.28ZM95,25.47a7.76,7.76,0,0,0,1.09-2.08l-.7,1.06L95,25l-.39.63a5.18,5.18,0,0,0-.81,2v0a8.17,8.17,0,0,1,.53-1.2l.32-.56Zm2.08,27.48q0-.11.07-.11h.07a0,0,0,0,0,0,0,.61.61,0,0,0,0-.14l-.35,0h-.32a1.44,1.44,0,0,1-.63-.21.39.39,0,0,1-.18,0,1.4,1.4,0,0,1-.56-.14l-.35-.14-.35,0a.56.56,0,0,0-.35-.21l-.11,0q-.11,0-.11.14l.42.21.46.21a3.33,3.33,0,0,1,.91.49s.08-.09.11-.28a.63.63,0,0,0,.49.25h.14l.32,0A.7.7,0,0,1,97.06,52.95Zm-2.88-1.58a.15.15,0,0,0,0-.11v0l0,0,0,.11,0,.11,0-.07v0A.1.1,0,0,0,94.17,51.36Zm4.19-31.94a1.19,1.19,0,0,1-.46.21,2.56,2.56,0,0,1-.63,1.09,1.71,1.71,0,0,1-1.06.67.54.54,0,0,1-.07.21l-.14.28a.94.94,0,0,0,0,.21s0,.07,0,.07h0a1.23,1.23,0,0,1,.49-.74.8.8,0,0,0-.07.25v.14a1.8,1.8,0,0,0-.46.56l-.21.35a1.6,1.6,0,0,1-.28.28l.11-.21,0-.18v-.11a.2.2,0,0,0,0-.14,8.71,8.71,0,0,1-.6,1.06l-.32.49-.28.49s.12-.06.21-.18l.11-.11.11-.14c.09-.09.15-.14.18-.14s.07,0,.07.14a.86.86,0,0,1-.63.53.15.15,0,0,1,0,.11.59.59,0,0,1,0,.18l0,.18,0,.18a1,1,0,0,0,0,.25c0,.09,0,.14.07.14h0Q95.93,23.08,98.36,19.42ZM94.81,51.36l0,.14a.3.3,0,0,0,0-.28Zm.18,24s.06.07.18.07l.35,0a.83.83,0,0,0,.32-.11s.07,0,.07-.07,0,0-.07-.07l-.25.07-.21,0Zm2.5-53.76A3.39,3.39,0,0,0,98,20.44l-.39.53-.39.49a5,5,0,0,0-.67,1.2h-.07a.32.32,0,0,1-.18.18l-.14.39q.18,0,.39-.56l.21-.25.25-.28Zm8,30.25a.93.93,0,0,1,.28,0c.23,0,.35-.06.35-.18a1,1,0,0,0-.35-.07,1.23,1.23,0,0,0-.39.07l-.32.18-.35.14h0l-.18,0-.14,0-.11,0a2.68,2.68,0,0,0-.6.21l-.28.14-.32.11-.32,0-.35,0a4.15,4.15,0,0,0-.63.18,1.24,1.24,0,0,1-.46.07H101l-.32-.07h-.35l-.18.07-.18.07a.68.68,0,0,1-.35.14l-.42,0-.42-.11-.35,0h-.32a1.06,1.06,0,0,0-.63.18.11.11,0,0,0-.11-.07.32.32,0,0,0-.14,0q.07.11.11.11h0l.07,0,0,0,0,.07h.07l.14,0,.07,0,.11,0v.11l0,0h0a.21.21,0,0,0-.07-.14,23.44,23.44,0,0,0,7-1.13s.08.07.11.07l.07,0h0s.06,0,.11.14A.4.4,0,0,1,105.43,51.82ZM99.2,18.54l.63-.7.63-.74.7-.67a1.2,1.2,0,0,0-.53-.21h-.07A2.37,2.37,0,0,0,100,17a.82.82,0,0,0,.35-.18l.14-.11.11-.11a1.64,1.64,0,0,1-.63.63l-.35.18a1,1,0,0,0-.28.25l-.07.21L99.2,18,99,18.4a1.33,1.33,0,0,1-.7.53.14.14,0,0,1,.14.07v.21a.06.06,0,0,0,.07.07h.07Zm-.77,33.21,0,0v0Zm.39-32,.18-.21a.52.52,0,0,0,.14-.28.1.1,0,0,0,0-.07l-.18.18-.11.14-.14.14a.54.54,0,0,0-.14.25s0,.07.11.07h.07A.43.43,0,0,1,98.82,19.77Zm.53,31.63-.07-.07h0l-.07,0a.27.27,0,0,0,0,.11h.07S99.32,51.45,99.34,51.4Zm.32-32.72a2.35,2.35,0,0,0,.14-.25h-.21c0,.09-.09.14-.14.14l-.14.25h.18C99.53,18.73,99.59,18.68,99.66,18.68Zm.14,54.07.18,0s.08,0,.11-.11a.11.11,0,0,1-.11.07h-.07S99.85,72.71,99.8,72.75Zm.07-21.42v0l0,0v0a0,0,0,0,0,0,0s0,.07.07.07v-.07l0-.07,0,.07v0l0,0Zm.18.28-.07.14.11.18.07-.14Zm.14.07a.1.1,0,0,0,0,.07l.07.18a.1.1,0,0,0,0-.07Zm.53-34.05a.69.69,0,0,1,.18-.25l.11-.14.14-.11a.48.48,0,0,0,.18-.28s0,0-.07-.07L101,17l-.18.18a1.65,1.65,0,0,0-.46.53ZM101,51.12l0,0,0,0v.11l0,0A.21.21,0,0,0,101,51.12Zm.35.56,0-.07V51.5l0-.07Zm.25-.53h-.07l0,0q.07.11.11.11h0a.15.15,0,0,0,0-.11.28.28,0,0,0,0-.11S101.62,51.15,101.6,51.15Zm.21.28h-.07a.1.1,0,0,0,0,.07v0a.14.14,0,0,0,0,.11s0-.07,0-.07l0,0s0,0,0-.07A0,0,0,0,0,101.81,51.43Zm.95,1.44h0a.14.14,0,0,0,0-.11V52.7h-.11s0,0,0,.11v.11Zm.53-38.49a1.42,1.42,0,0,1,.18-.21s0-.07-.07-.07l-.11,0a.56.56,0,0,0-.21.14.89.89,0,0,0-.14.25v0a.06.06,0,0,0,.07.07l.14-.18A.2.2,0,0,1,103.28,14.39Zm1.55,72.75a1.48,1.48,0,0,1,0-.35,3.65,3.65,0,0,1,.11-.81l.11-.56.07-.6a.2.2,0,0,0-.14-.07s0,0,0,.07V85a.23.23,0,0,1-.14.11v.18a2.37,2.37,0,0,1,0,.39l-.18.6a2.08,2.08,0,0,0-.14.7,1,1,0,0,0,.11.46c-.19,0-.29.07-.32.14a6.77,6.77,0,0,1,.11,1.3v.39l0,.84v.77q.21,0,.25-.39v-.18a1.44,1.44,0,0,0-.07-.46,2.58,2.58,0,0,0,.14-.67l0-.67A3.31,3.31,0,0,1,104.83,87.14Zm-.14-22.59a.88.88,0,0,1-.11.39l-.11.21-.14.14a.43.43,0,0,0-.11.21.06.06,0,0,0,.07.07l.11,0q.74-1.09,1.83-3.06l.84-1.58q.49-.84.88-1.48.35-.92.84-2l.42-.91.42-.91a32.52,32.52,0,0,0,1.55-3.8,7.7,7.7,0,0,0,.56-1.16l-.35.11q-.63,1.58-1,2.43a33.57,33.57,0,0,1-2.22,4.36,1.33,1.33,0,0,0-.11.53,1.63,1.63,0,0,0,0,.32,7.32,7.32,0,0,0-.88,1.37l-.42.81-.39.84q-.53,1.09-.85,1.65A8.82,8.82,0,0,1,104.69,64.56Zm0-14a.1.1,0,0,0,0-.07l0-.11a.1.1,0,0,0,0,.07A.27.27,0,0,0,104.69,50.55Zm3.41,19.77.21-.67a3.13,3.13,0,0,0,.18-1,2,2,0,0,0,0-.39q-.21.07-.25.74a2,2,0,0,1-.11.49.54.54,0,0,1-.28.35.14.14,0,0,1,.11.14.27.27,0,0,1,0,.11l0,.14a.11.11,0,0,0,.07.11q-.77,2.71-1.58,6.54l-.67,3.31-.7,3.27v.35a.58.58,0,0,1,0,.18.39.39,0,0,1,0,.18l0,0,0,.11-.07.11a.14.14,0,0,0,0,.11s0,.09.11.14l.11-.25a.38.38,0,0,0-.07-.21,5.17,5.17,0,0,0,.42-1.13l.11-.6.11-.6,0-.42,0-.39q0-.49.07-.74a2.76,2.76,0,0,1,.25-.7l.14-.32.11-.32.07-.6.07-.63a4.58,4.58,0,0,1,.18-1.2,9.77,9.77,0,0,0,.39-1.23l.11-.63.11-.6.18-.6.21-.56a9,9,0,0,0,.32-1.13v-.25l0-.21V71ZM105,50.52l0-.11,0-.07,0,0v.07A.31.31,0,0,0,105,50.52Zm0,39.86a0,0,0,0,1,0,0l0,0,0,0a.15.15,0,0,0,.11,0l.07-.07,0,0v0s0,0-.07-.07Zm.28-40,0,.07a0,0,0,0,0,0,0v-.07q0-.11-.07-.11a0,0,0,0,0,0,0Zm0,38.77h.18l.14,0a.2.2,0,0,0-.14-.07h0l-.07.07Zm3.17-38.8c0,.07.09.11.14.11h0l.07,0,.07-.07a.47.47,0,0,0-.07-.18l0,0-.07,0a.25.25,0,0,1,.11-.18l0,0a.47.47,0,0,0,.07-.11.52.52,0,0,0-.32-.11.57.57,0,0,0-.25.07q-.32.11-.35.63a.72.72,0,0,0-.53-.18l-.42,0-.56.18-.28.07-.25.07,0,0,0,.11c0,.07,0,.11.07.11l0,0,0-.07-.07-.14v-.07a.75.75,0,0,1,.25.6,1.61,1.61,0,0,1,.63-.28,1.51,1.51,0,0,1,.39-.07q.18,0,.21.07c.07-.16.25-.26.53-.28l.18,0,.14,0A.44.44,0,0,0,108.49,50.31Zm-1.86,1.37a2,2,0,0,0,.77-.18l.56-.32.56-.32a1.67,1.67,0,0,0-.32,0,1.94,1.94,0,0,0-1.37.56h-.39c-.14,0-.21,0-.21.14a.27.27,0,0,0,0,.11A1.75,1.75,0,0,0,106.63,51.68Zm.07,22.87h0a.14.14,0,0,0-.14.11l0,.11,0,.07.11,0a.14.14,0,0,0,.14-.11Zm-.18,7.92s0-.06-.07-.11a0,0,0,0,0,0,0l0,0Zm.49-2.92.18-.14L107,79.3l-.18.14Zm-.07-29.76a.14.14,0,0,0-.07.14V50l.07-.11Zm0,29.27-.11.07.18.14.11-.07Zm.07,1.9a.1.1,0,0,0,.07,0h0a.11.11,0,0,0,.07-.11l0-.11s0-.07-.07-.07S107.1,80.81,107,80.95Zm.35-1.34v0s.07,0,.07-.07a0,0,0,0,0,0,0q.11,0,.11-.07a.1.1,0,0,0-.07,0h-.07v0a.09.09,0,0,1,0,.14Zm0-2.57.14,0h.11l0,0a.1.1,0,0,0-.07,0l-.14,0Zm.11-.7a.15.15,0,0,0,.11,0h0a.11.11,0,0,0,.11-.07.32.32,0,0,0,0-.14.06.06,0,0,0-.07-.07s-.07,0-.07.11l0,.07S107.61,76.32,107.54,76.34Zm.39,1.27h-.07a.1.1,0,0,0-.07,0v.07l0,0Zm.25-1.27h-.07a.21.21,0,0,0-.18.11.14.14,0,0,0,0,.11s0,.08.11.11l.07-.07,0-.07Q108,76.41,108.17,76.34Zm.63-9.6a6.87,6.87,0,0,0,.77-3.17v-.14l-.42,1.16-.39,1.09a7.57,7.57,0,0,0-.35,2.11v.14h.07c.14,0,.22-.14.25-.42l0-.21v-.21A1.2,1.2,0,0,1,108.81,66.74Zm-.21-15.8a.32.32,0,0,1,.18-.18l.21,0a.33.33,0,0,0,.35-.28l-.21.07-.25,0C108.69,50.58,108.6,50.71,108.6,50.94Zm.53-.67.32-.11a2.36,2.36,0,0,0,.53-.39.81.81,0,0,1-.11-.21c0,.14-.07.21-.14.21h0c-.09,0-.19-.16-.28-.42v.11l0,.07v.18q0-.11.07-.11s0,0,.07.07l0,.07v.07a.11.11,0,0,0-.07,0,.1.1,0,0,0-.07,0l0,0a.14.14,0,0,1-.11,0l.07-.11a.66.66,0,0,0,0-.21.17.17,0,0,1-.18.14l-.07,0-.11,0,.07.07.07,0a.15.15,0,0,1,0,.11V50a0,0,0,0,1,0,0s-.07-.07-.14-.21V50l0,.14v.25Zm1.58,13.33a2.19,2.19,0,0,0,.07-.53,1.78,1.78,0,0,0-.07-.49l-.11.11-.07.11a.52.52,0,0,1-.14.25l0-.11v-.07s-.06-.09-.18-.14l-.07.18,0,.14v.07a.29.29,0,0,0,.07.21,1,1,0,0,0-.25.49l-.07.28,0,.32a2.11,2.11,0,0,1-.39,1.06.62.62,0,0,1,0,.25,7.13,7.13,0,0,1-.53,2.18l.18,0a.45.45,0,0,1,.42.32.11.11,0,0,1-.07,0l-.14-.07-.07-.07a0,0,0,0,0,0,0l0,0c0,.07,0,.12.14.14h.07s.07,0,.07.07l.11-.49.11-.53q.18-.7.25-1.13a6.71,6.71,0,0,0,.14-1.2,1.14,1.14,0,0,0-.11-.56A1.18,1.18,0,0,0,110.71,63.61Zm-1.27,7,.07-.11-.11-.07a.35.35,0,0,0-.07.11Zm.18-20.16h.11a.38.38,0,0,0,.18-.32.11.11,0,0,1-.11.07h-.11c-.09,0-.15.07-.18.21l0-.07h0l-.07.11a.1.1,0,0,0,.07,0s0,0,.07-.07Zm-.18,19.42a.11.11,0,0,0,.11.07l.07,0,0,0,0,0v0a0,0,0,0,0,0,0,.1.1,0,0,0-.07,0Zm.7-8.13a.8.8,0,0,0-.35.7l-.07.42a.84.84,0,0,1-.18.39q.32-.11.42-.67l.07-.46A1,1,0,0,1,110.14,61.78Zm-.46,7.63a.11.11,0,0,0,0-.07s0-.09-.11-.14-.07,0-.07.07l0,0,.07.07ZM110,49.85l.32-.11a1.67,1.67,0,0,1,.32,0l-.14-.6s-.09.06-.14.18,0,.11.07.11h0l0,0s0,.07,0,.07-.06,0-.11-.07l-.11-.11s0-.07-.07-.07c0,.19-.09.28-.14.28s-.08,0-.11-.11l0,.14v.11A.39.39,0,0,0,110,49.85Zm0,.49.07,0a0,0,0,0,0,0,0,.27.27,0,0,0,0-.11h-.07s0,0,0,.07a.57.57,0,0,0,0,.14Zm.42,10.31a.44.44,0,0,0-.32.35l0,.25v.21a.36.36,0,0,0-.07.14s0,.07,0,.07l.11-.11V61.5l-.07,0a.66.66,0,0,0,.25-.42l0-.18A.29.29,0,0,1,110.5,60.65Zm.46.95a.2.2,0,0,0,.14-.07l.07-.07.11-.07q-.39-.18-.39-.46v0a.34.34,0,0,1,.25-.32.57.57,0,0,1-.21-.18,4.17,4.17,0,0,0-.46,1.13,9.7,9.7,0,0,0-.28,1.13.15.15,0,0,0,.11,0,.35.35,0,0,0,.18-.07l.14-.11.14,0q-.21-.11-.21-.21a.12.12,0,0,1,.11-.11s.08,0,.11.11v.11a.23.23,0,0,0,.11.11l0-.18,0-.21a.63.63,0,0,1,.18-.35H111a.14.14,0,0,0-.11,0l-.14.11a.32.32,0,0,1,0-.14l.07-.14V61.5a.14.14,0,0,0,0-.11l.11,0s.06,0,.11-.07a.27.27,0,0,1,0,.11c0,.07,0,.13-.14.18A.1.1,0,0,0,111,61.6Zm-.63-11.47a.27.27,0,0,0,0-.11l0,0a.1.1,0,0,0,0,.07l0,.14,0,0v0A.1.1,0,0,0,110.32,50.13Zm-.11,16.22h.07a.2.2,0,0,0,.21-.18h0a.14.14,0,0,0-.11,0l-.07.07Zm.25-6.23a.06.06,0,0,0-.07.07l0,.11s0,0-.07.07l.14,0a.06.06,0,0,0,.07-.07l0-.14v-.07ZM110.64,50l0,0s-.08,0-.11.11l.07.18s0-.07,0-.07h.07a.1.1,0,0,0,0-.07.27.27,0,0,0,0-.11Zm.14,9.08h0a.14.14,0,0,0-.14.11v.11a.11.11,0,0,1-.11.07l.21.11a.38.38,0,0,0,.07-.21Zm-.21.7-.07.07a.1.1,0,0,1,0,.07v0a.14.14,0,0,1,.11,0l.11-.07,0,0v0Zm.28-4.89,0,.18.11-.11Zm.63,4.64c.12-.12.18-.2.18-.25v0a3.27,3.27,0,0,0-.56-.18q0,.25-.11.63l-.14.6a.14.14,0,0,0,.11,0H111l.11,0a.31.31,0,0,1,.14,0q-.18-.14-.18-.25a.1.1,0,0,1,0-.07l.14-.11.21-.11a.29.29,0,0,0,0-.11l-.14-.14a.2.2,0,0,1-.07-.14s0-.09.11-.14v.11A.4.4,0,0,0,111.48,59.52Zm-.32-10.17-.07,0h0v.21l0,0Zm.18,8.76a0,0,0,0,1,0,0l0,0,0,.07h.14l.07-.07,0,0a0,0,0,0,0,0,0,.12.12,0,0,0-.11-.07Zm22.55-17.7.32.53a3,3,0,0,0,.39.39l-.6-.21q-.95-1.16-1.55-1.2h-.11a3.2,3.2,0,0,0-1.23.28l-.6.28-.6.25a13.83,13.83,0,0,0-2.15,2.11L126.86,44l-1,1.13a2.56,2.56,0,0,1-.46,1l-.28.39a3.54,3.54,0,0,0-.21.42.62.62,0,0,0-.28-.07h-.11q.39.25.39.39c0,.09-.13.15-.39.18a.28.28,0,0,1,0,.46l-.11.07,0,.11a.1.1,0,0,0,0,.07s0,.09.11.14l-.14,0h-.14v0a.38.38,0,0,1,.18.28.27.27,0,0,1,0,.11l-.11.14-.14.14v0l-.21.28,0,0v0l0,.07a.14.14,0,0,1-.11,0l.07.07v.35a3,3,0,0,0-.46,1.34s0,0-.07,0h-.11a.32.32,0,0,0-.14,0,.1.1,0,0,0-.07,0q.28.14.28.25v0q0,.14-.32.14c.12.07.18.12.18.14v.07s0,.06.11.11a5.35,5.35,0,0,0-.49,1.37l-.14.74a5.55,5.55,0,0,1-.25.81s0,.07-.11.07l-.07,0h0a.24.24,0,0,1,.11.21v.14s0,.08.11.11a7.91,7.91,0,0,0-.28.88l-.28.88a3.85,3.85,0,0,1-1.05,1.72,3.71,3.71,0,0,1-.63-.07v.07A.09.09,0,0,1,120,59h-.07a1.39,1.39,0,0,1-.53-.21l-.07-.07a4.09,4.09,0,0,1-.63-.18,1.57,1.57,0,0,1-.6-.28.62.62,0,0,1-.18-.28c-.37-.19-.56-.37-.56-.56a.24.24,0,0,0,.11-.18V57l0-.07,0-.07.07-.07s.08-.07.11-.07h0a3.23,3.23,0,0,1,.25-1.16l.11-.25.07-.28a1.63,1.63,0,0,0,0-.32.78.78,0,0,0,0-.25v0a10.37,10.37,0,0,0,.67-1.51l.25-.81.21-.81a23.77,23.77,0,0,1,1-3.17v0a1.86,1.86,0,0,1,0-.35,6.9,6.9,0,0,1,.14-1.23l.14-.77a5.27,5.27,0,0,0,.07-.81v-.07a.78.78,0,0,0,.14-.35l0-.39v-.21a.72.72,0,0,1,.18-.53v-.6q0-.63,0-1.41l.11-1,.11-.95,0-.07-.14-.14v-.11a.74.74,0,0,0,.11-.39.66.66,0,0,0,0-.21,4.12,4.12,0,0,0-.28-.67v0c0-.07.07-.13.21-.18a1.83,1.83,0,0,1,.35,0h.21l.21,0a2.4,2.4,0,0,1,.46,0,6,6,0,0,0,.81.14l.42.07.39.07a.83.83,0,0,1,.32.14,1,1,0,0,1,.28.63.69.69,0,0,1-.07.32v0a.1.1,0,0,0,0,.07l0,0v.07s0,0,.11.07a2.41,2.41,0,0,0-.18.49l0,.46a1.92,1.92,0,0,1-.21,1v.07a.63.63,0,0,1,.07.28v.11a.44.44,0,0,1-.21.39s-.07,0-.07.07a.1.1,0,0,0,0,.07l.11.18a13.22,13.22,0,0,1,4.15-3.59.34.34,0,0,1,.07.18q0,.18-.25.28l-.35.11a1.4,1.4,0,0,0-.32.14l-.63.56-.67.56a5.43,5.43,0,0,0-1.06,1.13,1.81,1.81,0,0,0-.6.6l-.21.35-.21.35-.07.18,0,.18v.11a.61.61,0,0,0,.07.28v0a.15.15,0,0,1,0,.11.56.56,0,0,0-.14.32l0,.21v.18l.18-.32.18.07,0,.07a.24.24,0,0,0,.18.07c0-.07-.06-.13-.18-.18l-.11-.07-.11-.07a1.74,1.74,0,0,0,.39-.49l.32-.53a1.91,1.91,0,0,1,.7-.81l-.11-.11-.11-.07a.38.38,0,0,0-.21-.07,0,0,0,0,1,0,0,.32.32,0,0,1,.14,0l.18.11h.11v0a.1.1,0,0,1,0-.07l.18-.11q.11-.07.11-.14s0-.09-.11-.14a1.19,1.19,0,0,0,.42.18s.07,0,.07,0a2.31,2.31,0,0,1-.35-.18,1.67,1.67,0,0,1,.35-.39l.25-.18.21-.18a1,1,0,0,0,.39-.77v-.14a.15.15,0,0,1,.11,0l.07.07q.07.11.14.11a.11.11,0,0,1,.07-.11l.11-.11c.07,0,.11-.09.11-.14a.1.1,0,0,0,0-.07.14.14,0,0,1-.11,0l-.18,0a.48.48,0,0,1,.35-.14h.11l0,0-.07,0v0l0,0a.61.61,0,0,0,.35-.14.24.24,0,0,0,.11-.21v0a.15.15,0,0,0-.11,0l0,.07s0,0-.07,0l-.11,0a.25.25,0,0,1,.18-.11l.11,0,.07-.07a.51.51,0,0,0,.18.11h0l0,0a0,0,0,0,0,0,0l-.07,0-.11,0a.24.24,0,0,1,.18-.07h.07l.18.07h.14a.1.1,0,0,1,0-.07s0,0,.14-.07a.21.21,0,0,0,.14,0s0-.12-.14-.21a.43.43,0,0,0,.32.14l.11,0,.14-.07.14,0-.07,0-.07-.07q-.11-.07-.11-.14l.11,0,.14.07.14,0s.07,0,.07,0-.11-.08-.11-.11a.06.06,0,0,1,.07-.07h.28l0,0-.07,0a0,0,0,0,0,0,0l0,0a2.34,2.34,0,0,1,.91-.28,4.21,4.21,0,0,1,1-.11,1.79,1.79,0,0,0-.63-.11,3.19,3.19,0,0,0-.77.11l-.67.18a3.67,3.67,0,0,1-.63.07l.11.14.11.11a.14.14,0,0,1,0,.11s0,0-.11.07-.11-.08-.11-.11v0l0,0s0-.08-.14-.11l-.18,0a.51.51,0,0,1-.32-.11,5.7,5.7,0,0,1,2.39-.63,2.6,2.6,0,0,1,1.27.39,3.65,3.65,0,0,1,1.2,1s.16.13.35.39l.21.32A1.43,1.43,0,0,0,133.89,40.42ZM122,52.07a.11.11,0,0,0,.11-.07.1.1,0,0,0,0-.07,0,0,0,0,0,0,0Zm.67-2-.07.14.11,0a.14.14,0,0,0,0-.11V50Zm0,.32.14,0h0l0,0,0,0h-.18A.1.1,0,0,1,122.67,50.34ZM123,49l0,0,0,0Zm.46,0a0,0,0,0,1,0,0l-.14-.07a0,0,0,0,1,0,0Zm.25-1.44-.18,0a.06.06,0,0,0-.07.07.2.2,0,0,0,.14.07h0l0-.07Zm-.11-1.16s.07,0,.07,0a.29.29,0,0,0,0-.11.29.29,0,0,0,0-.11,0,0,0,0,0,0,0l0,0a.23.23,0,0,0-.11.11v.14Zm-.11,2a.53.53,0,0,0,.21.07l0,0v0l-.14,0,0,0Zm.39-.18a.35.35,0,0,0-.18-.07l-.07,0-.07,0,.07.07.18.07Zm0-3.55-.11,0v0l0,.07a0,0,0,0,1,0,0l.07,0a0,0,0,0,0,0,0Zm-.07,3.31.18,0h0l.11,0s0,0-.07-.07L124,48h-.11A0,0,0,0,0,123.87,48.06Zm.28-1.62s.07,0,.07,0l.07-.07,0,0a.1.1,0,0,1,.07,0s0-.06-.14-.11l-.14,0-.14,0,0,.07,0,.07a.11.11,0,0,1,0,.07l0,0Zm0-1.23.11,0s0-.06-.07-.11l-.07-.07a.27.27,0,0,0,0,.11Zm.35-.35a0,0,0,0,1,0,0l-.21-.11,0,0Zm-.14,1.86h.11v-.11l.07-.07h-.07a.15.15,0,0,0-.11,0l0,.11Zm.32.49v0l-.11-.07-.11,0s0,0,0,.07l.07,0h.07Zm.28-1.55.18-.11.14-.18a.31.31,0,0,0,0-.14.3.3,0,0,0-.11-.21l-.07.18-.07.14A.63.63,0,0,0,125,45.66Zm.07-2.88s0,0,.07.07l0,0,.07,0s0,0-.07-.07l0,0Zm.21,1.34-.11,0v0l.07.07.11,0v0h0l0,0v0l0,0h0Zm.25.6a.06.06,0,0,0-.07.07l0,.11a.14.14,0,0,1-.11,0h.11q.14,0,.14-.11v-.11Zm-.07.35,0,0-.07,0,0,0a.1.1,0,0,0,0,.07l.07,0Zm.28-1.51a.21.21,0,0,0-.14-.07.2.2,0,0,0-.14.07.53.53,0,0,0,.21.07h.07Zm-.07,1.65s.07,0,.07,0l0,0a.39.39,0,0,0-.14-.07l0,0,0,0v0Zm.81-1.79.07,0,.07,0a0,0,0,0,0,0,0v0a1.43,1.43,0,0,0-.67.53l-.21.35-.21.35a1.48,1.48,0,0,0,.53-.49l.18-.28Zm-.53-1.65.18,0a.06.06,0,0,0,.07-.07s-.08-.07-.11-.07h0l-.07.07Zm.46.77.07,0-.11-.07Zm.32.39a.59.59,0,0,0,.18.07,0,0,0,0,0,0,0l0-.07s0-.07,0-.07h0a.1.1,0,0,0-.07,0l0,0Zm.32-.21,0,0h0l-.07,0s0,0,.07.07Zm0-1.44a.1.1,0,0,1-.07,0l.14.07,0,0Zm.35.25a.54.54,0,0,0-.42.39.33.33,0,0,0,.28-.14l.07-.11ZM127,42.57h.07a.47.47,0,0,0,.39-.18l.11-.18.07-.14a.51.51,0,0,0-.35.18l-.18.18Zm.74-1.3-.21,0a.1.1,0,0,0,0,.07v.07h0a.14.14,0,0,0,.11,0l0,0Zm0,.77a0,0,0,0,0,0,0,.1.1,0,0,1,0-.07h0l-.11,0A.2.2,0,0,0,127.77,42Zm.25-1.13a.68.68,0,0,0-.21,0l-.07,0v0a.31.31,0,0,0,.14,0h0l0,0Zm0,.67a.31.31,0,0,0,.14,0,.11.11,0,0,0,.11-.07v-.07s0-.07.07-.07l-.11,0a.1.1,0,0,0-.07,0l0,.11Zm.32-.91a.09.09,0,0,0-.14,0h0l-.07,0Zm-.07.6a.31.31,0,0,0,.14,0,.38.38,0,0,0,.21-.07.11.11,0,0,0,.07-.11s0-.09-.11-.14l-.07.11-.07.07A.44.44,0,0,1,128.23,41.27Zm1-.7a.15.15,0,0,0,.11,0l0-.07h0l-.11.07a.87.87,0,0,0-.32.18l-.11.11-.14.14.11,0h.07c.09,0,.16-.06.21-.18l.11-.14A.23.23,0,0,1,129.25,40.56Zm.35-.35s.08.07.11.07l.07,0-.07,0-.07,0Zm.67-.32.14,0a.14.14,0,0,0,.11,0,.27.27,0,0,0,0-.11.1.1,0,0,0-.07,0l0,0,0,0a.09.09,0,0,1-.14,0S130.24,39.89,130.27,39.89Zm1.27-.46.18,0h.11l.11,0h.14l-.18,0h-.11l-.14,0Zm11.71,5.63a.89.89,0,0,1,.21.39.62.62,0,0,1,0,.18.15.15,0,0,1,0,.11,1.33,1.33,0,0,0-.46.53,10,10,0,0,1-.81,1.09,5.17,5.17,0,0,0-.84,1.55l0,.07q-.7.81-1.72,2.15l-.84,1.13-.84,1.13A17.39,17.39,0,0,1,136,55.58l-.14.14-.07.07-.14.11-.25.21-.25.21-.53.35-.25.14-.28.11a3.42,3.42,0,0,1-1.09.18,2.17,2.17,0,0,1-1.06-.35l-.11,0a3.09,3.09,0,0,1-1.55-1.55l-.25-.53-.11-.32,0-.14,0-.11q0-.18-.07-.53a4.27,4.27,0,0,1,0-.53l0-.39,0-.39.11-.74q.11-.7.14-1.34l0-.07a2.51,2.51,0,0,0,.21-.63l0-.6a2.35,2.35,0,0,1,.35-1.16l0-.07a19.43,19.43,0,0,1,.6-3.06q.32-1.27.88-3v-.14l-.07-.21a.39.39,0,0,1,0-.18,2,2,0,0,0,.32-.91l.07-.53,0-.6q0-.18.28-.25H133a.94.94,0,0,1,.42.11l.18.07a.88.88,0,0,1,.39.21,7.77,7.77,0,0,0,.63.46l.35.21.32.21a.42.42,0,0,1,.21.25,2.19,2.19,0,0,1,.07.53,1.43,1.43,0,0,1-.25.84V42l0,.07v0s0,0,.07.07a4.68,4.68,0,0,0-.32.7l-.21.7a5.15,5.15,0,0,1-.56,1.37v.32a2.06,2.06,0,0,1,0,.39,1.06,1.06,0,0,1-.32.49.21.21,0,0,0-.11.18v0a1.79,1.79,0,0,1,0,.35,2.27,2.27,0,0,1-.21.88l-.11.28-.11.25a1.31,1.31,0,0,0,0,.32,1.15,1.15,0,0,0,0,.28.39.39,0,0,1,0,.18,1.33,1.33,0,0,0-.25.63l-.07.35a1.24,1.24,0,0,1-.11.32q0,.11.25.11l-.07.07-.11,0a.23.23,0,0,0-.14.21v0a.58.58,0,0,1,0,.18.94.94,0,0,1-.11.42l-.11.28-.07.25v.07a2,2,0,0,1,0,.39,1.78,1.78,0,0,1,0,.35v.32l0,.18v.21c0,.26.06.41.18.46a0,0,0,0,1,0,0l0,.18.07.14s0,.07.07.07a.2.2,0,0,0,.14-.07.1.1,0,0,1,.07,0h0a.23.23,0,0,0,.21.14.55.55,0,0,0,.21-.14l.18-.18.11,0,.07-.07.11,0,0,0a.1.1,0,0,0,0-.07l0-.07,0-.11a4,4,0,0,0,1-.84l.42-.49q.28-.28.49-.46a.14.14,0,0,0,.07-.14,1.25,1.25,0,0,1,.11-.32l.25-.28a1.33,1.33,0,0,0,.32-.63h.11l.07,0a.09.09,0,0,1,.14,0,2.83,2.83,0,0,1,.6-1l.35-.46a1.68,1.68,0,0,0,.28-.53.23.23,0,0,1,.11-.11,2,2,0,0,0,.32-.32l.28-.39a1.35,1.35,0,0,1,.63-.63l0,0,0,0h0v0c.07-.14.14-.27.21-.39l.21-.32q.28-.39.72-1.06a11.36,11.36,0,0,1,1-1.3l.11,0,0-.07a.35.35,0,0,1,.32-.18h.07Q142.37,43.45,143.25,45.07Zm-12.17,9c.07.14.13.21.18.21a10.2,10.2,0,0,1-.21-2.25c0-.35,0-.72,0-1.09a27.91,27.91,0,0,1,.46-3.69,16,16,0,0,0-.63,4.26c0,.31,0,.6,0,.88v.53a4.8,4.8,0,0,0,0,.63A2.62,2.62,0,0,0,131.08,54.11Zm2.64,1.83a.6.6,0,0,0,.25-.07,3.25,3.25,0,0,1-1.34-.35,2.13,2.13,0,0,1-.84-1.16,7.54,7.54,0,0,1-.32-2.36q0-.53,0-1.13a8.62,8.62,0,0,0-.18,1.69,6.06,6.06,0,0,0,0,.67,3.74,3.74,0,0,0,.28,1.2,2,2,0,0,0,.7,1l.18.14.21.14.25.11.25.07.28.07Zm-2.11-6.05.14-.63a4.85,4.85,0,0,0,.18-1.13V48c0,.14-.11.36-.18.67l-.11.35-.07.35a4,4,0,0,0-.11.81,1.14,1.14,0,0,0,.07.42A3.58,3.58,0,0,1,131.6,49.89Zm.46-5-.11.35-.14.39a3.23,3.23,0,0,0-.18.91.94.94,0,0,0,0,.28,4.68,4.68,0,0,1,.14-.7l.21-.63a3.63,3.63,0,0,0,.25-1.13v-.11A3.24,3.24,0,0,1,132.06,44.89Zm-.21,3s.08,0,.11-.14v-.21l.14-.32.11-.35a1.67,1.67,0,0,0,.07-.46.78.78,0,0,0,0-.25l-.07.35-.11.28a1.87,1.87,0,0,0-.11.6v.14h0c0,.07,0,.11-.07.11Zm.49-3.69c.07,0,.12-.14.14-.35l.14-.32.14-.35a1.74,1.74,0,0,0,.11-.53.39.39,0,0,0,0-.18,2,2,0,0,1-.11.35l-.11.28a1.32,1.32,0,0,0-.14.6v.14h-.07a.11.11,0,0,1-.07.11Zm.18,1.55,0-.14a.27.27,0,0,0,0-.11.11.11,0,0,0-.07-.11l0,.11-.07.18a.27.27,0,0,0,0,.11.09.09,0,0,0,.11.11h0Zm.18-.7v-.18l-.11,0s0,.07,0,.07a.4.4,0,0,1,0,.18.14.14,0,0,0,.11,0S132.67,45,132.7,45Zm.28-1.16-.07.14a.79.79,0,0,0-.07.35l.18,0v-.18l.07-.18a.27.27,0,0,0,0-.11.09.09,0,0,0-.11-.11Zm.14-2.08L133,42a.58.58,0,0,0,0,.14.06.06,0,0,0,.07.07h0V42l.07-.14a.27.27,0,0,0,0-.11.11.11,0,0,0-.07-.11A.27.27,0,0,1,133.12,41.79Zm.07-.49v.14h.11q0-.11.07-.11V41.2h-.11A.11.11,0,0,1,133.19,41.3Zm.49-1.09-.07.11a2,2,0,0,0-.11.35l.18,0v-.18l.07-.18a.31.31,0,0,0,0-.14s0,0-.07-.07Zm0-3.94V36.2a.14.14,0,0,1,0-.11,2.77,2.77,0,0,0,.32-.91l0-.56.07-.56c0-.12.08-.2.25-.25h.11a.94.94,0,0,1,.42.11l.14.07a1.23,1.23,0,0,1,.35.18,3.07,3.07,0,0,0,.6.42l.32.21.32.21a.44.44,0,0,1,.18.25.66.66,0,0,1,0,.21,2.3,2.3,0,0,1-.18.81,4.1,4.1,0,0,1-.18.49,3.64,3.64,0,0,1-.21.32v.18l-.07,0a.62.62,0,0,1-.28.07,1.17,1.17,0,0,1-.46-.11l-.35-.18a.94.94,0,0,0-.42-.11l-.53-.07-.46-.35v-.07ZM168.65,1a5,5,0,0,1,.6,1.16,28.74,28.74,0,0,1-1.62,5.24l-.49,1.23-.49,1.16q-.6,1.41-1,2.39a.34.34,0,0,0-.21.14l-.14.25q-.14.35-.32.35v.11l.07.07a.1.1,0,0,1,0,.07.34.34,0,0,1-.07.18q-.39,1-.88,2.18l-.42,1-.42.95A29.72,29.72,0,0,0,162,21.25c-.09,0-.15,0-.18.07l0,.07,0,.07c0,.12-.12.18-.21.18h-.07a.92.92,0,0,1,0,.7.5.5,0,0,1-.49.35v0a.3.3,0,0,0,.11.21l.07.11a.39.39,0,0,1,0,.18,21.24,21.24,0,0,0-1.37,3.66,4.33,4.33,0,0,0-.42.88h-.11a1,1,0,0,1,0,.25l-.07.18-.07.14v.14a5.16,5.16,0,0,0-.21.95h0l-.11.53q-.07.32-.11.53a1,1,0,0,1-.56.67v.18a.14.14,0,0,0,.11,0q.11,0,.11.07a.1.1,0,0,1,0,.07,1,1,0,0,0-.28.46l-.07.28-.07.28q-.11.81-.49,1a1.51,1.51,0,0,1,.11.53q0,.67-.77.84a.76.76,0,0,0,.11.25.3.3,0,0,0,.21.11q-.18.49-.35,1.2l-.14.67-.18.67a16.75,16.75,0,0,1-.84,2.92l-.39,2-.39,2q-.46,2.36-.7,3.83-.81,4.47-1.16,8.09v4.4q0,1.16,0,2a11.94,11.94,0,0,0,1.27,5.49l0,.56a.5.5,0,0,1-.21,0,1.63,1.63,0,0,1-.32,0l-.32,0H153a.91.91,0,0,0-.21-.39l-.14-.14-.18-.18a.87.87,0,0,1-.32-.56v-.11a8.18,8.18,0,0,1-1.79-4,24.16,24.16,0,0,1-.39-4.71v-.49q.21.07.28.67l.11,0s.08,0,.11-.14v-.07l0-.07a.14.14,0,0,1,.11,0h.07v.11a.41.41,0,0,1-.14.35l-.18.07-.21.07a5.56,5.56,0,0,1,.21,1.2l.07.7,0,.74a9.72,9.72,0,0,0,.49,2.78l-.11-1.06-.11-1.06q0-.88,0-1.55v-.63s-.07.06-.07.18l0,.14,0,.14v-.07l0-.14-.07-.25V60.3c0-.19.07-.28.21-.28v-.07a.24.24,0,0,0-.11-.21l-.14-.07a.2.2,0,0,1-.07-.14q.07-.14.14-.14h0l.11,0,.07,0a1.24,1.24,0,0,1,0-.35v-.35q0-.42-.28-.46a.34.34,0,0,0,.28-.21V58a.66.66,0,0,0,0-.21.66.66,0,0,1,0-.21q0-.21.14-.21a.89.89,0,0,0-.11-.21l-.11-.18a.51.51,0,0,1-.11-.32.32.32,0,0,1,0-.14l0,0a.1.1,0,0,1,.07,0l.07.07h0v-.14s-.07-.08-.21-.11a1.16,1.16,0,0,0,0-.28v-.67c.09,0,.14,0,.14.11a.27.27,0,0,1,0,.11l0,.21V56a1,1,0,0,0,.21-.63v-.28a4.28,4.28,0,0,0,0-.53c-.07,0-.11,0-.11.14v.14l0,.14a1.71,1.71,0,0,1-.14-.7,1.64,1.64,0,0,1,0-.32q.18,0,.18.28v.18a.79.79,0,0,0,.21-.56v-.39a.83.83,0,0,1,.11-.32s0-.07,0-.07a.37.37,0,0,0-.14.07.2.2,0,0,1-.14.07s0,0-.07-.14a5.85,5.85,0,0,0,.74-2.5l.07-.67.07-.7a6.6,6.6,0,0,1,.25-1.41.69.69,0,0,1,.35.11v-.11q0-.21-.42-.25c.19-.07.28-.29.28-.67l0-.25v-.21a.8.8,0,0,1,.11-.32s0-.08-.11-.11l-.14,0q-.14-.07-.14-.14V45.8a.2.2,0,0,0,.14.07h.35a9.46,9.46,0,0,1,.32-2.15l-.32.49q-.39,1-.81,2l0,.6a36.3,36.3,0,0,0-.6,3.91l-.25,2.18q-.14,1.27-.25,2.18,0,.21,0,.7l0,.42v.53a1.23,1.23,0,0,1-.39,1.06,82,82,0,0,1,1-10.59,39,39,0,0,1-4.33,7.49,2.24,2.24,0,0,0-.11.32q-.07.18-.14.32c-.17.14-.4.36-.7.67l-.77.81-.35.35-.42.39a.43.43,0,0,1-.07.25,1.08,1.08,0,0,0-.35.25l-.32.25-.07,0-.07,0-.14,0h-.14a1,1,0,0,1-.25,0l-.25.07a3.23,3.23,0,0,1-.81.25l-.14,0H141l-.7-.07a2.77,2.77,0,0,1-.63-.25l-.14-.07-.14-.07-.28-.18a7.7,7.7,0,0,1-1-1l-.07-.07-.14-.28-.07-.21-.11-.39-.21-.7a8.78,8.78,0,0,1-.21-1.51c0-.35,0-.64,0-.88l0-.21,0-.18,0-.28.14-.63.14-.6a11.3,11.3,0,0,1,1.93-4.36l0,0,.18-.53.25-.49a5.62,5.62,0,0,1,.63-.95l.7-.88.67-.91.07,0a2.74,2.74,0,0,0,.42-.35l.32-.42a1.37,1.37,0,0,1,.81-.63l.07,0a6.4,6.4,0,0,1,1-.95,1.46,1.46,0,0,1,.28-.21l.49-.35.53-.25.25-.11.28-.07a2.29,2.29,0,0,1,1.13,0,4.43,4.43,0,0,1,1,.39,3.92,3.92,0,0,1,1.44,1.62l0,0a9.74,9.74,0,0,0,.46-1l.25-.49.25-.49a.23.23,0,0,0-.21-.25l.11-.11.11-.07a.5.5,0,0,1,.28-.07,3.16,3.16,0,0,1,.35-1.34l.18-.32.14-.28.28-.53q.18-.63.46-1.44l.6-1.37a12.72,12.72,0,0,0,1-2.6l.28-.42a4,4,0,0,0,.28-.53,2.44,2.44,0,0,0,.25-.91.78.78,0,0,0,0-.25,3.4,3.4,0,0,0,.39-.56l.21-.46v-.07l.18-.39v0h0a2.7,2.7,0,0,0,.11-.7h.07a3.9,3.9,0,0,1,.28-1,2.59,2.59,0,0,1,.56-.84v0l0-.07v-.18l0,0,0-.18a.75.75,0,0,1,0-.25q.39-1.06,1-2.67L159,19q1.34-3.38,2.08-5.45a.3.3,0,0,0,.25-.14l.11-.11.11-.07a20.82,20.82,0,0,1,1.23-3.27l.7-1.55.67-1.51,0-.11-.14.07a4.08,4.08,0,0,0,.18-.49l.07.07,0-.11.11-.11.11-.25a.23.23,0,0,0-.11-.11l-.07.14-.07.14V6l.32-.74.25-.81.07-.21a6,6,0,0,0,.92-1.58l.11,0v0l0,0a1.72,1.72,0,0,1,.21-.49l.14-.53h.11a.44.44,0,0,0,.07-.11V1.27s0-.07-.07-.07a.39.39,0,0,1-.07.14.4.4,0,0,0,0-.18l.11-.25a3.59,3.59,0,0,1,.28-.53.77.77,0,0,1,.6-.39.7.7,0,0,1,.46.18Q168.26.56,168.65,1ZM146.91,48.65a6.29,6.29,0,0,1,.42-1.13,2.38,2.38,0,0,1,.81-.95,5.83,5.83,0,0,1,.77-2.18l-.35-.07-.39-.07a.76.76,0,0,1-.28-.14,1,1,0,0,1-.39-.63.27.27,0,0,1,0-.11v0h-.18s.07-.08.07-.11v-.07l0,0a2.12,2.12,0,0,1-.18-.28,0,0,0,0,0,0,0v0q0,.11-.11.11a.34.34,0,0,1-.18-.07l0-.07v.07a1,1,0,0,1-.63.6l-.21.11-.18.11a.73.73,0,0,0-.25.39.11.11,0,0,1-.11.07.9.9,0,0,0-.46.28l-.18.18a1.4,1.4,0,0,1-.21.18q0,.11.18.21h-.18l-.11,0a.14.14,0,0,0-.14.11.65.65,0,0,1-.25.39l-.21.14-.18.11,0,0a2,2,0,0,1-.25.56l-.18.21-.21.25a2.27,2.27,0,0,0-.56.92s0,0-.07.07a1.65,1.65,0,0,0-.32.25.44.44,0,0,0-.14.32.27.27,0,0,0,0,.11.27.27,0,0,1,0,.11s0,0-.07.07a.75.75,0,0,0-.28.32l-.11.18-.07.21a1.39,1.39,0,0,1-.42.7s0,.06.07.11l.07,0v.11a2.11,2.11,0,0,0-.49.88l-.14.49a2.36,2.36,0,0,1-.25.49v.11a.69.69,0,0,1,.07.32l-.07.25a1.21,1.21,0,0,0,0,.28.51.51,0,0,0,.07.28l-.11,0-.07,0a.14.14,0,0,1-.11,0,1.19,1.19,0,0,1,.11.35v.35a1.44,1.44,0,0,0,.25.77v.39l.07.14.07.11a.57.57,0,0,1,.07.25v.11l0,0,.07-.07.14.07.11,0a.3.3,0,0,0,.25-.14v-.07l0,0,0,0,0,.11,0,0s.07-.06.07-.18h-.07v0h0a.84.84,0,0,0,.35-.25l.07-.07.11.07a8.32,8.32,0,0,1,1.62-1.65.66.66,0,0,1,0-.21l.11-.14a.2.2,0,0,0,.07-.14.11.11,0,0,0,0-.07,11.6,11.6,0,0,0,1.65-2.15l.67-1.13Q146.49,49.18,146.91,48.65Zm4.92-.18v.14c0,.09,0,.14.11.14h0a.58.58,0,0,0,.07-.25c0-.09-.06-.15-.18-.18Zm.14,5.63a.55.55,0,0,1,0-.18l0-.14v0s-.06-.07-.18-.07l0,.14v.11C151.9,54,151.93,54.08,152,54.11Zm-.07-3.24h.18v-.14a.31.31,0,0,1-.14,0A.4.4,0,0,1,151.9,50.87Zm.18,2.29V53l0-.18v-.07c0-.07,0-.11-.07-.11h0a.2.2,0,0,0,0,.14v.11A.46.46,0,0,0,152.08,53.16Zm0,6.3s.08,0,.11-.14a.29.29,0,0,0,0-.11.32.32,0,0,0,0-.14.4.4,0,0,0-.07-.14.1.1,0,0,0-.07,0s0,0-.07.07h0a.06.06,0,0,1,.07.07.33.33,0,0,1,0,.14l0,.11v.11A.06.06,0,0,0,152.12,59.45Zm.18-2.08V57.2a.11.11,0,0,0-.11-.07h0v.14s0,0,.07.07S152.24,57.38,152.29,57.38Zm0,6,0-.35v-.32c0-.26,0-.42-.14-.49a1.1,1.1,0,0,1,0,.32l0,.32C152.15,63.11,152.21,63.29,152.33,63.36Zm-.14-11.65a.27.27,0,0,0,.11.25v-.14l0-.21a.32.32,0,0,0,0-.14.06.06,0,0,0-.07-.07A.43.43,0,0,0,152.19,51.71Zm.21,3.59.11-.42a1.74,1.74,0,0,0,.11-.53.39.39,0,0,0,0-.18.14.14,0,0,0,0-.11.11.11,0,0,0-.11-.07l-.07.49-.07.46v.81a1.52,1.52,0,0,0,0,.28.14.14,0,0,0,0,.11s0,0,.07-.11a.27.27,0,0,0,0-.11.31.31,0,0,0,0-.14A3.49,3.49,0,0,1,152.4,55.3Zm-.07-13.58h.18a.58.58,0,0,0,0-.18.31.31,0,0,0,0-.14l0-.11-.07-.11h0a.14.14,0,0,1,.11,0l0,0,0,0,.07-.14.07-.11a.91.91,0,0,0,.14-.25v0a.21.21,0,0,0-.11-.18l-.11,0-.11-.07a1.16,1.16,0,0,1-.07.35l-.07.14a.66.66,0,0,0,0,.21Zm0,8.37a2.37,2.37,0,0,0,0,.39,1.79,1.79,0,0,0,0,.35l.11-.39.11-.39a1.63,1.63,0,0,0,0-.32.78.78,0,0,0-.07-.35Zm.11,3.66h0q.21,0,.25-.46c0-.33-.06-.52-.18-.56v.18a1.63,1.63,0,0,1,0,.32l0,.25Zm.11-9h.07s.07,0,.07-.07l-.07,0h-.07l0,0a0,0,0,0,0,0,0Zm.21,7.49.11-.25a.58.58,0,0,0,0-.18.3.3,0,0,0-.14-.25,1,1,0,0,0,0-.21,0,0,0,0,0,0,0l0,0a.11.11,0,0,0-.07.11s0,.08.11.11a1.79,1.79,0,0,1,0,.35l0,.14,0,.11a.31.31,0,0,0,0,.14.16.16,0,0,0,.11.18A1,1,0,0,1,152.78,52.28Zm.28-12.45q-.18,0-.21.28v.14a.22.22,0,0,0,.14.21.35.35,0,0,0,.18-.32.87.87,0,0,0-.07-.32ZM153,47.21s-.07,0-.07,0H153a.14.14,0,0,0,.11,0ZM153,37.15a.28.28,0,0,0,0,.18l.07-.25h0A.06.06,0,0,1,153,37.15Zm.11,13.3v-.11c0-.09,0-.14-.11-.14v.21c0,.07,0,.11,0,.11A.06.06,0,0,1,153.13,50.45Zm.07-.6.07-.25q.07-.32.11-.56a2.18,2.18,0,0,0,.07-.53,1,1,0,0,0-.14-.56,3,3,0,0,1-.07.53l-.11.56q0,.35,0,.63a1.67,1.67,0,0,0,0,.39Zm.28-10.45v-.21a.29.29,0,0,0-.21.07l-.07.07-.07.07Zm-.07-.42a.55.55,0,0,1,.32-.28l.28-1.16s0,.07-.07.07-.08,0-.11-.11a.79.79,0,0,0-.07.35v.21a1.15,1.15,0,0,1,0,.28h-.07l-.18,0a.53.53,0,0,0-.18.21.57.57,0,0,0-.07.25A.22.22,0,0,0,153.42,39Zm0,8.65.14,0a.06.06,0,0,0-.07-.07h-.07Zm.18-.32a.31.31,0,0,1,0-.14l.11-.18a.14.14,0,0,0,0-.11s-.06-.08-.18-.11v.14l0,.18v.14q0,.11,0,.11Zm.21-3.45v-.14a.14.14,0,0,0-.14-.11h-.07v.14a.19.19,0,0,0,.14.21Zm0-7.18a.1.1,0,0,0,.07,0c.07,0,.12,0,.14-.14v-.14l0-.18Q153.84,36.27,153.8,36.69Zm.18,8.62.21-1,.21-1a8.39,8.39,0,0,0,.25-1.76l-.25,1.06-.28,1.09a8.89,8.89,0,0,0-.21,1.76v.35a.14.14,0,0,0,0-.11v-.25A.38.38,0,0,1,154,45.31Zm.25-3.41a.1.1,0,0,0,.07,0h0l0,0a0,0,0,0,0,0,0l-.11,0-.11,0,0,0v0s0,0,.11,0l.07,0h.07Zm-.14-3.45-.07.07,0,.07.18-.07ZM154,37.22l.11,0,.07-.25-.11-.07v.07a.15.15,0,0,1,0,.11l0,.07Zm.14-2.85,0,.14.07,0,.07,0,0-.07v0s0-.09-.11-.14v0Zm.21,5-.07.14.14,0v-.18Zm.74,1.2a.38.38,0,0,0-.11-.28v.11a.61.61,0,0,1,0,.18l-.07.25a.55.55,0,0,0-.07.25.14.14,0,0,0,0,.11A1.12,1.12,0,0,0,155.11,40.53Zm0-5.59.07-.18a.4.4,0,0,1,.07-.11.15.15,0,0,0-.11,0h-.07v.11a1.05,1.05,0,0,1-.14.53C155,35.23,155.06,35.12,155.11,34.93ZM155,40.18h.14a.11.11,0,0,0,.11-.07h-.14Q155,40.11,155,40.18Zm0-.25a1.13,1.13,0,0,0,.46-.77,1.91,1.91,0,0,0,.07-.53,3,3,0,0,0,0-.49q-.11.28-.28.88l-.11.46Zm.25-5.63h-.11l0,0v0a0,0,0,0,0,0,0s0,0,.07-.07Zm.11-2.43a.1.1,0,0,0-.07,0l0,0a.42.42,0,0,0-.07.11.27.27,0,0,0,0,.11h.07a0,0,0,0,1,0,0h0Zm-.18,1.3v0l0-.11S155.21,33.13,155.21,33.17Zm.07,7.11a.14.14,0,0,0,.11,0h0s0,0,.07-.11a.1.1,0,0,0,0-.07,0,0,0,0,0,0,0,.1.1,0,0,0-.07,0h0a.06.06,0,0,1-.07.07A.31.31,0,0,0,155.28,40.28Zm.14-8.69v-.07a.29.29,0,0,0,.07-.21h0a.14.14,0,0,0-.11,0,.31.31,0,0,0,0,.14v.14l0,0h0Zm.18,3.27a.38.38,0,0,0,.18-.28.29.29,0,0,0-.11-.18.77.77,0,0,0-.14.28.94.94,0,0,0-.07.35q0,.14,0,.14S155.55,35.07,155.6,34.86Zm-.07-1.48v-.14l0,.18Zm.46-3.2a.27.27,0,0,0,0-.11,0,0,0,0,0,0,0,.23.23,0,0,0-.14-.11l-.18,0a.06.06,0,0,0-.07.07l.11.07h.11A.24.24,0,0,1,156,30.18Zm0,5.42V35.5l0-.14a.27.27,0,0,0,0-.11,0,0,0,0,0,0,0l-.21.53a.29.29,0,0,0,.18.11s0,0,.07-.07A.24.24,0,0,1,156,35.6Zm0-3.2q0-.11-.07-.11h0l0,.25h.07a.1.1,0,0,0,.07,0Zm.18-2.85a.32.32,0,0,0-.14,0,.41.41,0,0,0-.07.11v.14a.06.06,0,0,0,.07.07s.08-.07.11-.07h0Zm0-.28-.14,0v.11s0,.07,0,.07l0-.11Zm.14-.74,0,0h0Zm.14,6.79.11-.18a.31.31,0,0,0,0-.14.2.2,0,0,0-.07-.14.41.41,0,0,0-.07.11l-.07.21a.66.66,0,0,0,0,.21.11.11,0,0,0,.07.11A.58.58,0,0,1,156.41,35.32Zm.28-7,0,.07.07,0Zm.32,5.7a.2.2,0,0,0-.07.14l.11.07h.11a.11.11,0,0,0,0-.07v0l-.07-.07,0,0Zm.25-7.28c-.07,0-.11.09-.11.28h.14a.3.3,0,0,0,0-.28Zm.46,4.36a.3.3,0,0,0,0,.14l.07.11s.08.07.11.07.08,0,.11-.11a.1.1,0,0,1-.07,0l0-.07A.14.14,0,0,0,157.71,31.13Zm.35-.81-.25,0,0,.07.07.07v.07a.21.21,0,0,0,.14.14Zm.07-.32a.39.39,0,0,0,0-.18v0a.11.11,0,0,0-.07-.11l-.07.14A.16.16,0,0,0,158.13,30Zm.25-2.25h-.11s-.07,0-.07,0l.11,0Zm.25-4,0,0,0,.18A.2.2,0,0,0,158.62,23.71Zm1,.91-.11,0a.15.15,0,0,0-.11,0,.14.14,0,0,0-.11.14V25a.14.14,0,0,0,.14.11A1.24,1.24,0,0,0,159.61,24.63Zm.07-1.65a.14.14,0,0,0-.07-.14l-.07.18q0,.14,0,.14t.07-.11l0,0Zm.11,1.51.07-.18-.11-.07a.61.61,0,0,1,0,.18S159.76,24.44,159.78,24.49Zm.46-7.56-.11-.07a.69.69,0,0,1,0,.21v.11Zm.39,4.54s.07,0,.07,0h0l0,0h-.07a.52.52,0,0,0-.11.14v0a.2.2,0,0,0,.07.14l0-.11A.39.39,0,0,0,160.63,21.46Zm.67-1.76-.11.14a.79.79,0,0,0-.11.25.1.1,0,0,0,.07,0q.14,0,.25-.28a1.16,1.16,0,0,0,.07-.35.31.31,0,0,0,0-.14A.79.79,0,0,1,161.3,19.7Z"/></g></g></svg>